<?xml version="1.0" encoding="UTF-8" standalone="no"?>
<!DOCTYPE svg PUBLIC "-//W3C//DTD SVG 1.1//EN">
<svg version="1.1" xmlns="http://www.w3.org/2000/svg" xmlns:xlink="http://www.w3.org/1999/xlink" preserveAspectRatio="xMidYMid meet" viewBox="0 0 640 640"><defs><path d="M256.99 14.13L232.03 537.55L221.33 532.8L249.86 7.34L256.99 14.13Z" id="c3luFzl4yt"></path><path d="M360.05 14.67L384.2 537.55L394.9 532.8L366.36 7.34L360.05 14.67Z" id="bcRI2Rug9"></path><path d="M316.43 58.46L316.43 619.58L296.22 619.58L305.73 58.46L316.43 58.46Z" id="a6WxqvjmT"></path><path d="M366.36 7.34L317.82 58.46L304.47 58.46L249.86 7.34L366.36 7.34Z" id="avfXUOWgX"></path><path d="M256.99 28.74L303.36 197.2L303.36 180.56L256.99 15.66L256.99 28.74Z" id="bxeEswBo5"></path><path d="M303.36 199L249.86 148.81L249.86 158.32L303.36 206.82L303.36 199Z" id="n8sD132SZ"></path><path d="M249.86 174.97L300.98 353.85L300.98 337.21L249.86 160.7L249.86 174.97Z" id="a1BZIoMZTz"></path><path d="M300.98 349.86L244.37 295.75L242.73 305.26L300.98 360.53L300.98 349.86Z" id="a2CYZUbJ63"></path><path d="M242.73 323.68L298.12 517.44L298.12 500.52L242.73 305.73L242.73 323.68Z" id="e3kx1IDqx3"></path><path d="M298.12 514.75L237.44 439.19L235.39 451.68L298.12 527.29L298.12 514.75Z" id="dlgvNVEFc"></path><path d="M316.43 199L366.1 148.81L366.1 158.32L316.43 206.82L316.43 199Z" id="a2vMhleUL"></path><path d="M316.43 349.86L372.5 295.75L372.5 305.26L316.43 360.53L316.43 349.86Z" id="cemg2XY0e"></path><path d="M316.43 514.75L379.16 439.19L379.16 451.68L316.43 527.29L316.43 514.75Z" id="dgROFzhmm"></path><path d="M316.43 67.85L365.18 148.81L365.18 140.24L316.43 59.55L316.43 67.85Z" id="dFl12QKkw"></path><path d="M316.43 214L372.5 294.94L372.5 286.78L316.43 206.82L316.43 214Z" id="e70ADYix9"></path><path d="M316.43 368.02L379.16 439.19L379.16 430.86L316.43 360.53L316.43 368.02Z" id="i1NWJnMhu1"></path><path d="M320.81 455.38C331.85 455.38 340.81 464.33 340.81 475.38C340.81 487.81 340.81 505.12 340.81 517.55C340.81 528.6 331.85 537.55 320.81 537.55C311.97 537.55 305.45 537.55 296.61 537.55C285.56 537.55 276.61 528.6 276.61 517.55C276.61 505.12 276.61 487.81 276.61 475.38C276.61 464.33 285.56 455.38 296.61 455.38C305.45 455.38 311.97 455.38 320.81 455.38Z" id="a52lvJhbM0"></path></defs><g><g><g><use xlink:href="#c3luFzl4yt" opacity="1" fill="#8d7373" fill-opacity="1"></use><g><use xlink:href="#c3luFzl4yt" opacity="1" fill-opacity="0" stroke="#000000" stroke-width="1" stroke-opacity="1"></use></g></g><g><use xlink:href="#bcRI2Rug9" opacity="1" fill="#8d7373" fill-opacity="1"></use><g><use xlink:href="#bcRI2Rug9" opacity="1" fill-opacity="0" stroke="#000000" stroke-width="1" stroke-opacity="1"></use></g></g><g><use xlink:href="#a6WxqvjmT" opacity="1" fill="#8d7373" fill-opacity="1"></use><g><use xlink:href="#a6WxqvjmT" opacity="1" fill-opacity="0" stroke="#000000" stroke-width="1" stroke-opacity="1"></use></g></g><g><use xlink:href="#avfXUOWgX" opacity="1" fill="#8d7373" fill-opacity="1"></use><g><use xlink:href="#avfXUOWgX" opacity="1" fill-opacity="0" stroke="#000000" stroke-width="1" stroke-opacity="1"></use></g></g><g><use xlink:href="#bxeEswBo5" opacity="1" fill="#8d7373" fill-opacity="1"></use><g><use xlink:href="#bxeEswBo5" opacity="1" fill-opacity="0" stroke="#000000" stroke-width="1" stroke-opacity="1"></use></g></g><g><use xlink:href="#n8sD132SZ" opacity="1" fill="#8d7373" fill-opacity="1"></use><g><use xlink:href="#n8sD132SZ" opacity="1" fill-opacity="0" stroke="#000000" stroke-width="1" stroke-opacity="1"></use></g></g><g><use xlink:href="#a1BZIoMZTz" opacity="1" fill="#8d7373" fill-opacity="1"></use><g><use xlink:href="#a1BZIoMZTz" opacity="1" fill-opacity="0" stroke="#000000" stroke-width="1" stroke-opacity="1"></use></g></g><g><use xlink:href="#a2CYZUbJ63" opacity="1" fill="#8d7373" fill-opacity="1"></use><g><use xlink:href="#a2CYZUbJ63" opacity="1" fill-opacity="0" stroke="#000000" stroke-width="1" stroke-opacity="1"></use></g></g><g><use xlink:href="#e3kx1IDqx3" opacity="1" fill="#8d7373" fill-opacity="1"></use><g><use xlink:href="#e3kx1IDqx3" opacity="1" fill-opacity="0" stroke="#000000" stroke-width="1" stroke-opacity="1"></use></g></g><g><use xlink:href="#dlgvNVEFc" opacity="1" fill="#8d7373" fill-opacity="1"></use><g><use xlink:href="#dlgvNVEFc" opacity="1" fill-opacity="0" stroke="#000000" stroke-width="1" stroke-opacity="1"></use></g></g><g><use xlink:href="#a2vMhleUL" opacity="1" fill="#8d7373" fill-opacity="1"></use><g><use xlink:href="#a2vMhleUL" opacity="1" fill-opacity="0" stroke="#000000" stroke-width="1" stroke-opacity="1"></use></g></g><g><use xlink:href="#cemg2XY0e" opacity="1" fill="#8d7373" fill-opacity="1"></use><g><use xlink:href="#cemg2XY0e" opacity="1" fill-opacity="0" stroke="#000000" stroke-width="1" stroke-opacity="1"></use></g></g><g><use xlink:href="#dgROFzhmm" opacity="1" fill="#8d7373" fill-opacity="1"></use><g><use xlink:href="#dgROFzhmm" opacity="1" fill-opacity="0" stroke="#000000" stroke-width="1" stroke-opacity="1"></use></g></g><g><use xlink:href="#dFl12QKkw" opacity="1" fill="#8d7373" fill-opacity="1"></use><g><use xlink:href="#dFl12QKkw" opacity="1" fill-opacity="0" stroke="#000000" stroke-width="1" stroke-opacity="1"></use></g></g><g><use xlink:href="#e70ADYix9" opacity="1" fill="#8d7373" fill-opacity="1"></use><g><use xlink:href="#e70ADYix9" opacity="1" fill-opacity="0" stroke="#000000" stroke-width="1" stroke-opacity="1"></use></g></g><g><use xlink:href="#i1NWJnMhu1" opacity="1" fill="#8d7373" fill-opacity="1"></use><g><use xlink:href="#i1NWJnMhu1" opacity="1" fill-opacity="0" stroke="#000000" stroke-width="1" stroke-opacity="1"></use></g></g><g><use xlink:href="#a52lvJhbM0" opacity="1" fill="#f5cd2d" fill-opacity="1"></use><g><use xlink:href="#a52lvJhbM0" opacity="1" fill-opacity="0" stroke="#000000" stroke-width="1" stroke-opacity="1"></use></g></g></g></g></svg>
