<?xml version="1.0" encoding="UTF-8" standalone="no"?>
<!DOCTYPE svg PUBLIC "-//W3C//DTD SVG 1.1//EN">
<svg version="1.1" xmlns="http://www.w3.org/2000/svg" xmlns:xlink="http://www.w3.org/1999/xlink" preserveAspectRatio="xMidYMid meet" viewBox="0 0 640 640"><defs><path d="M362.44 554.29C373.49 554.29 382.44 563.24 382.44 574.29C382.44 587.43 382.44 606.86 382.44 620C382.44 631.05 373.49 640 362.44 640C333.95 640 268.49 640 240 640C228.95 640 220 631.05 220 620C220 606.86 220 587.43 220 574.29C220 563.24 228.95 554.29 240 554.29C268.49 554.29 333.95 554.29 362.44 554.29Z" id="a6hWizOkH"></path><path d="M318.13 256.9C329.17 256.9 338.13 265.86 338.13 276.9C338.13 342.69 338.13 520.05 338.13 585.83C338.13 596.88 329.17 605.83 318.13 605.83C307.36 605.83 295.08 605.83 284.32 605.83C273.27 605.83 264.32 596.88 264.32 585.83C264.32 520.05 264.32 342.69 264.32 276.9C264.32 265.86 273.27 256.9 284.32 256.9C295.08 256.9 307.36 256.9 318.13 256.9Z" id="bSEtgpB15"></path><path d="M373.81 5.71C384.86 5.71 393.81 14.67 393.81 25.71C393.81 100.29 393.81 304 393.81 378.57C393.81 389.62 384.86 398.57 373.81 398.57C363.05 398.57 350.76 398.57 340 398.57C328.95 398.57 320 389.62 320 378.57C320 304 320 100.29 320 25.71C320 14.67 328.95 5.71 340 5.71C350.76 5.71 363.05 5.71 373.81 5.71Z" id="f3B0w4S4"></path><path d="M332.74 95C343.78 95 352.74 103.95 352.74 115C352.74 195.52 352.74 417.1 352.74 497.62C352.74 508.66 343.78 517.62 332.74 517.62C319.83 517.62 301.12 517.62 288.21 517.62C277.17 517.62 268.21 508.66 268.21 497.62C268.21 417.1 268.21 195.52 268.21 115C268.21 103.95 277.17 95 288.21 95C301.12 95 319.83 95 332.74 95Z" id="ajX54yGuh"></path><path d="M473.81 67.62C484.86 67.62 493.81 76.57 493.81 87.62C493.81 160.52 493.81 359.24 493.81 432.14C493.81 443.19 484.86 452.14 473.81 452.14C462.57 452.14 448.86 452.14 437.62 452.14C426.57 452.14 417.62 443.19 417.62 432.14C417.62 359.24 417.62 160.52 417.62 87.62C417.62 76.57 426.57 67.62 437.62 67.62C448.86 67.62 462.57 67.62 473.81 67.62Z" id="bE6S8vPKN"></path><path d="M222.62 10.48C233.66 10.48 242.62 19.43 242.62 30.48C242.62 104.1 242.62 304.95 242.62 378.57C242.62 389.62 233.66 398.57 222.62 398.57C212.81 398.57 203.38 398.57 193.57 398.57C182.53 398.57 173.57 389.62 173.57 378.57C173.57 304.95 173.57 104.1 173.57 30.48C173.57 19.43 182.53 10.48 193.57 10.48C203.38 10.48 212.81 10.48 222.62 10.48Z" id="be2cRulj6"></path><path d="M181.55 72.38C192.59 72.38 201.55 81.34 201.55 92.38C201.55 164.33 201.55 360.19 201.55 432.14C201.55 443.19 192.59 452.14 181.55 452.14C169.6 452.14 153.74 452.14 141.79 452.14C130.74 452.14 121.79 443.19 121.79 432.14C121.79 360.19 121.79 164.33 121.79 92.38C121.79 81.34 130.74 72.38 141.79 72.38C153.74 72.38 169.6 72.38 181.55 72.38Z" id="ahrSjjBSk"></path><path d="M201.55 256.9L268.21 239.05L268.21 229.52L201.55 247.38L201.55 256.9Z" id="c7eSAnZUFq"></path><path d="M268.21 209.29L221.19 186.67L212.86 193.81L268.21 220L268.21 209.29Z" id="c1HOd3penX"></path><path d="M352.74 183.1L352.74 191.89L352.74 204.52L362.86 183.1L352.74 183.1Z" id="b4Hm4OEoww"></path><path d="M352.74 243.21L417.62 256.9L417.62 243.21L352.74 229.52L352.74 243.21Z" id="a6ePbEuU6W"></path></defs><g><g><g><use xlink:href="#a6hWizOkH" opacity="1" fill="#666666" fill-opacity="1"></use><g><use xlink:href="#a6hWizOkH" opacity="1" fill-opacity="0" stroke="#000000" stroke-width="1" stroke-opacity="1"></use></g></g><g><use xlink:href="#bSEtgpB15" opacity="1" fill="#666666" fill-opacity="1"></use></g><g><use xlink:href="#f3B0w4S4" opacity="1" fill="#d2d2d2" fill-opacity="1"></use><g><use xlink:href="#f3B0w4S4" opacity="1" fill-opacity="0" stroke="#020202" stroke-width="1" stroke-opacity="1"></use></g></g><g><use xlink:href="#ajX54yGuh" opacity="1" fill="#d2d2d2" fill-opacity="1"></use><g><use xlink:href="#ajX54yGuh" opacity="1" fill-opacity="0" stroke="#000000" stroke-width="1" stroke-opacity="1"></use></g></g><g><use xlink:href="#bE6S8vPKN" opacity="1" fill="#d2d2d2" fill-opacity="1"></use><g><use xlink:href="#bE6S8vPKN" opacity="1" fill-opacity="0" stroke="#000000" stroke-width="1" stroke-opacity="1"></use></g></g><g><use xlink:href="#be2cRulj6" opacity="1" fill="#d2d2d2" fill-opacity="1"></use><g><use xlink:href="#be2cRulj6" opacity="1" fill-opacity="0" stroke="#000000" stroke-width="1" stroke-opacity="1"></use></g></g><g><use xlink:href="#ahrSjjBSk" opacity="1" fill="#d2d2d2" fill-opacity="1"></use><g><use xlink:href="#ahrSjjBSk" opacity="1" fill-opacity="0" stroke="#000000" stroke-width="1" stroke-opacity="1"></use></g></g><g><use xlink:href="#c7eSAnZUFq" opacity="1" fill="#d2d2d2" fill-opacity="1"></use><g><use xlink:href="#c7eSAnZUFq" opacity="1" fill-opacity="0" stroke="#000000" stroke-width="1" stroke-opacity="1"></use></g></g><g><use xlink:href="#c1HOd3penX" opacity="1" fill="#d2d2d2" fill-opacity="1"></use><g><use xlink:href="#c1HOd3penX" opacity="1" fill-opacity="0" stroke="#000000" stroke-width="1" stroke-opacity="1"></use></g></g><g><g><use xlink:href="#b4Hm4OEoww" opacity="1" fill-opacity="0" stroke="#000000" stroke-width="1" stroke-opacity="1"></use></g></g><g><use xlink:href="#a6ePbEuU6W" opacity="1" fill="#d2d2d2" fill-opacity="1"></use><g><use xlink:href="#a6ePbEuU6W" opacity="1" fill-opacity="0" stroke="#000000" stroke-width="1" stroke-opacity="1"></use></g></g></g></g></svg>
